{"title":"The.Ring.Two.2005.Unrated.720p.AMZN.WEBRip.DDP2.0.x264-NTG","magnet":"magnet:?xt=urn:btih:16288a1367d2060dbe9b4d85df197621c9c45a8b&dn=The.Ring.Two.2005.Unrated.720p.AMZN.WEBRip.DDP2.0.x264-NTG&tr=udp%3A%2F%2Ftracker.leechers-paradise.org%3A6969&tr=udp%3A%2F%2Fzer0day.ch%3A1337&tr=udp%3A%2F%2Fopen.demonii.com%3A1337&tr=udp%3A%2F%2Ftracker.coppersurfer.tk%3A6969&tr=udp%3A%2F%2Fexodus.desync.com%3A6969","uploader":"brablay","categoryP":"video","categoryS":"hd___movies","size":"3704596997","seeders":"2","leechers":"5","description":"Video\r\nID                                       : 1\r\nFormat                                   : AVC\r\nFormat/Info                              : Advanced Video Codec\r\nFormat profile                           : <a href=\"/cdn-cgi/l/email-protection\" class=\"__cf_email__\" data-cfemail=\"ce86a7a9a68e82fde0ff\">[email&#xA0;protected]</a>\r\nFormat settings, CABAC                   : Yes\r\nFormat settings, ReFrames                : 5 frames\r\nCodec ID                                 : V_MPEG4/ISO/AVC\r\nDuration                                 : 2 h 8 min\r\nBit rate mode                            : Variable\r\nBit rate                                 : 3 627 kb/s\r\nMaximum bit rate                         : 4 500 kb/s\r\nWidth                                    : 1 280 pixels\r\nHeight                                   : 720 pixels\r\nDisplay aspect ratio                     : 16:9\r\nFrame rate mode                          : Constant\r\nFrame rate                               : 23.976 (24000/1001) FPS\r\nColor space                              : YUV\r\nChroma subsampling                       : 4:2:0\r\nBit depth                                : 8 bits\r\nScan type                                : Progressive\r\nBits/(Pixel*Frame)                       : 0.164\r\nStream size                              : 3.25 GiB (94%)\r\nWriting library                          : x264 core 148 r2623 d5b2374\r\nEncoding settings                        : cabac=1 / ref=5 / deblock=1:-1:-1 / analyse=0x3:0x133 / me=umh / subme=9 / psy=1 / psy_rd=1.00:0.15 / mixed_ref=1 / me_range=24 / chroma_me=1 / trellis=2 / 8x8dct=1 / cqm=0 / deadzone=21,11 / fast_pskip=1 / chroma_qp_offset=-3 / threads=22 / lookahead_threads=3 / sliced_threads=0 / nr=150 / decimate=1 / interlaced=0 / bluray_compat=0 / constrained_intra=0 / bframes=8 / b_pyramid=2 / b_adapt=2 / b_bias=0 / direct=3 / weightb=1 / open_gop=0 / weightp=2 / keyint=120 / keyint_min=61 / scenecut=0 / intra_refresh=0 / rc_lookahead=120 / rc=crf / mbtree=1 / crf=18.0 / qcomp=0.60 / qpmin=0 / qpmax=69 / qpstep=4 / vbv_maxrate=4500 / vbv_bufsize=17500 / crf_max=0.0 / nal_hrd=vbr / filler=0 / ip_ratio=1.40 / aq=3:1.00\r\nDefault                                  : Yes\r\nForced                                   : No\r\nColor range                              : Limited\r\nColor primaries                          : BT.709\r\nTransfer characteristics                 : BT.709\r\nMatrix coefficients                      : BT.709\r\n\r\nAudio\r\nID                                       : 2\r\nFormat                                   : E-AC-3\r\nFormat/Info                              : Enhanced Audio Coding 3\r\nFormat settings, Endianness              : Big\r\nCodec ID                                 : A_EAC3\r\nDuration                                 : 2 h 8 min\r\nBit rate mode                            : Constant\r\nBit rate                                 : 224 kb/s\r\nChannel(s)                               : 2 channels\r\nChannel positions                        : Front: L R\r\nSampling rate                            : 48.0 kHz\r\nFrame rate                               : 187.500 FPS (256 spf)\r\nCompression mode                         : Lossy\r\nStream size                              : 205 MiB (6%)\r\nLanguage                                 : English\r\nService kind                             : Complete Main\r\nDefault                                  : Yes\r\nForced                                   : No","last_updated":"2017-11-05T12:03:02.608Z","parsed":{"xt":"urn:btih:16288a1367d2060dbe9b4d85df197621c9c45a8b","dn":"The.Ring.Two.2005.Unrated.720p.AMZN.WEBRip.DDP2.0.x264-NTG","tr":["udp://exodus.desync.com:6969","udp://open.demonii.com:1337","udp://tracker.coppersurfer.tk:6969","udp://tracker.leechers-paradise.org:6969","udp://zer0day.ch:1337"],"infoHash":"16288a1367d2060dbe9b4d85df197621c9c45a8b","infoHashBuffer":{"type":"Buffer","data":[22,40,138,19,103,210,6,13,190,155,77,133,223,25,118,33,201,196,90,139]},"name":"The.Ring.Two.2005.Unrated.720p.AMZN.WEBRip.DDP2.0.x264-NTG","announce":["udp://exodus.desync.com:6969","udp://open.demonii.com:1337","udp://tracker.coppersurfer.tk:6969","udp://tracker.leechers-paradise.org:6969","udp://zer0day.ch:1337"],"urlList":[]}}